<svg width="236" height="52" viewBox="0 0 236 52" fill="none" xmlns="http://www.w3.org/2000/svg">
<g filter="url(#filter0_d_606_379)">
<rect x="4" y="11" width="27" height="22" fill="#0D75FF" fill-opacity="0.9"/>
<rect x="31" width="27" height="22" fill="#0D75FF"/>
<rect x="25" y="22" width="27" height="22" fill="#0D75FF" fill-opacity="0.8"/>
<path d="M78.68 36.132C77.36 36.132 76.364 35.904 75.692 35.448C75.02 35.016 74.684 34.284 74.684 33.252C74.684 33.18 74.744 33.144 74.864 33.144C75.032 33.144 75.332 33.204 75.764 33.324C76.196 33.444 77.024 33.504 78.248 33.504C80.312 33.504 82.22 33.276 83.972 32.82C85.724 32.34 87.236 31.692 88.508 30.876C89.804 30.06 90.8 29.148 91.496 28.14C92.216 27.108 92.576 26.052 92.576 24.972C92.576 23.988 92.3 23.196 91.748 22.596C91.196 21.996 90.464 21.54 89.552 21.228C88.664 20.916 87.692 20.712 86.636 20.616C85.58 20.496 84.536 20.436 83.504 20.436C83.048 20.436 82.58 20.448 82.1 20.472C81.644 20.472 81.212 20.472 80.804 20.472C80.252 22.416 79.712 24.372 79.184 26.34C78.656 28.308 78.116 30.216 77.564 32.064C76.964 32.064 76.46 31.896 76.052 31.56C75.644 31.224 75.44 30.816 75.44 30.336C75.44 30.048 75.5 29.712 75.62 29.328C75.74 28.944 75.848 28.596 75.944 28.284C76.088 27.804 76.34 27 76.7 25.872C77.06 24.744 77.492 23.424 77.996 21.912C78.524 20.4 79.1 18.816 79.724 17.16C80.348 15.504 80.984 13.884 81.632 12.3C82.304 10.716 82.952 9.312 83.576 8.088C82.568 8.256 81.716 8.496 81.02 8.808C80.348 9.12 79.82 9.408 79.436 9.672C79.052 9.912 78.776 10.032 78.608 10.032C78.44 10.032 78.2 9.912 77.888 9.672C77.6 9.432 77.456 9.228 77.456 9.06C78.656 8.556 79.904 8.1 81.2 7.692C82.52 7.284 84.116 7.08 85.988 7.08C86.78 7.08 87.656 7.152 88.616 7.296C89.576 7.416 90.488 7.68 91.352 8.088C92.216 8.472 92.924 9.048 93.476 9.816C94.028 10.56 94.304 11.556 94.304 12.804C94.304 13.98 94.052 14.988 93.548 15.828C93.044 16.644 92.384 17.328 91.568 17.88C90.752 18.408 89.864 18.828 88.904 19.14C87.944 19.452 86.996 19.68 86.06 19.824C87.836 19.92 89.264 20.172 90.344 20.58C91.448 20.988 92.276 21.48 92.828 22.056C93.404 22.608 93.788 23.196 93.98 23.82C94.172 24.444 94.268 25.044 94.268 25.62C94.268 27.012 93.908 28.272 93.188 29.4C92.468 30.528 91.52 31.512 90.344 32.352C89.168 33.192 87.884 33.888 86.492 34.44C85.1 35.016 83.72 35.436 82.352 35.7C80.984 35.988 79.76 36.132 78.68 36.132ZM81.02 19.644C82.34 19.596 83.648 19.452 84.944 19.212C86.264 18.948 87.464 18.54 88.544 17.988C89.624 17.436 90.488 16.716 91.136 15.828C91.808 14.94 92.144 13.836 92.144 12.516C92.144 11.268 91.844 10.308 91.244 9.636C90.668 8.964 89.912 8.496 88.976 8.232C88.064 7.968 87.092 7.836 86.06 7.836C85.94 7.836 85.82 7.836 85.7 7.836C85.604 7.836 85.496 7.848 85.376 7.872C84.512 9.552 83.72 11.4 83 13.416C82.304 15.432 81.644 17.508 81.02 19.644ZM98.3863 34.152C97.3543 34.152 96.6223 33.828 96.1903 33.18C95.7583 32.556 95.5423 31.788 95.5423 30.876C95.5423 30.132 95.6623 29.364 95.9023 28.572C96.1423 27.78 96.4543 27.036 96.8383 26.34C97.2463 25.644 97.6903 25.08 98.1703 24.648C98.6743 24.216 99.1783 24 99.6823 24C99.8983 24 100.15 24.06 100.438 24.18C100.222 24.372 99.9583 24.732 99.6463 25.26C99.3583 25.764 99.0823 26.352 98.8183 27.024C98.5543 27.672 98.3263 28.32 98.1343 28.968C97.9663 29.616 97.8823 30.168 97.8823 30.624C97.8823 31.344 98.0023 31.872 98.2423 32.208C98.4823 32.52 98.7943 32.676 99.1783 32.676C99.6823 32.676 100.282 32.412 100.978 31.884C101.674 31.332 102.358 30.636 103.03 29.796C102.358 29.244 101.83 28.524 101.446 27.636C101.086 26.724 100.906 25.8 100.906 24.864C100.906 24.072 101.038 23.328 101.302 22.632C101.59 21.936 101.998 21.384 102.526 20.976C103.054 20.544 103.69 20.328 104.434 20.328C105.418 20.328 106.078 20.592 106.414 21.12C106.75 21.648 106.918 22.308 106.918 23.1C106.918 24.036 106.69 25.08 106.234 26.232C105.778 27.36 105.202 28.452 104.506 29.508C104.938 29.748 105.394 29.868 105.874 29.868C106.426 29.868 107.098 29.688 107.89 29.328C108.682 28.944 109.294 28.26 109.726 27.276L110.158 27.636C109.678 28.764 108.994 29.568 108.106 30.048C107.242 30.504 106.414 30.732 105.622 30.732C104.974 30.732 104.398 30.612 103.894 30.372C103.078 31.452 102.178 32.352 101.194 33.072C100.234 33.792 99.2983 34.152 98.3863 34.152ZM103.678 28.86C104.278 27.972 104.77 27.048 105.154 26.088C105.562 25.104 105.766 24.18 105.766 23.316C105.766 22.62 105.658 22.116 105.442 21.804C105.25 21.468 104.998 21.3 104.686 21.3C104.206 21.3 103.714 21.648 103.21 22.344C102.706 23.04 102.454 23.916 102.454 24.972C102.454 25.668 102.55 26.376 102.742 27.096C102.958 27.792 103.27 28.38 103.678 28.86ZM111.535 34.152C110.503 34.152 109.771 33.828 109.339 33.18C108.907 32.556 108.691 31.788 108.691 30.876C108.691 30.132 108.811 29.364 109.051 28.572C109.291 27.78 109.603 27.036 109.987 26.34C110.395 25.644 110.839 25.08 111.319 24.648C111.823 24.216 112.327 24 112.831 24C113.047 24 113.299 24.06 113.587 24.18C113.371 24.372 113.107 24.732 112.795 25.26C112.507 25.764 112.231 26.352 111.967 27.024C111.703 27.672 111.475 28.32 111.283 28.968C111.115 29.616 111.031 30.168 111.031 30.624C111.031 31.344 111.151 31.872 111.391 32.208C111.631 32.52 111.943 32.676 112.327 32.676C112.831 32.676 113.431 32.412 114.127 31.884C114.823 31.332 115.507 30.636 116.179 29.796C115.507 29.244 114.979 28.524 114.595 27.636C114.235 26.724 114.055 25.8 114.055 24.864C114.055 24.072 114.187 23.328 114.451 22.632C114.739 21.936 115.147 21.384 115.675 20.976C116.203 20.544 116.839 20.328 117.583 20.328C118.567 20.328 119.227 20.592 119.563 21.12C119.899 21.648 120.067 22.308 120.067 23.1C120.067 24.036 119.839 25.08 119.383 26.232C118.927 27.36 118.351 28.452 117.655 29.508C118.087 29.748 118.543 29.868 119.023 29.868C119.575 29.868 120.247 29.688 121.039 29.328C121.831 28.944 122.443 28.26 122.875 27.276L123.307 27.636C122.827 28.764 122.143 29.568 121.255 30.048C120.391 30.504 119.563 30.732 118.771 30.732C118.123 30.732 117.547 30.612 117.043 30.372C116.227 31.452 115.327 32.352 114.343 33.072C113.383 33.792 112.447 34.152 111.535 34.152ZM116.827 28.86C117.427 27.972 117.919 27.048 118.303 26.088C118.711 25.104 118.915 24.18 118.915 23.316C118.915 22.62 118.807 22.116 118.591 21.804C118.399 21.468 118.147 21.3 117.835 21.3C117.355 21.3 116.863 21.648 116.359 22.344C115.855 23.04 115.603 23.916 115.603 24.972C115.603 25.668 115.699 26.376 115.891 27.096C116.107 27.792 116.419 28.38 116.827 28.86ZM132.891 34.368C132.219 34.368 131.643 34.14 131.163 33.684C130.683 33.228 130.299 32.652 130.011 31.956C129.747 31.26 129.543 30.552 129.399 29.832C129.279 29.088 129.219 28.44 129.219 27.888C129.483 27.888 129.867 27.828 130.371 27.708C130.875 27.564 131.391 27.36 131.919 27.096C132.447 26.808 132.891 26.448 133.251 26.016C133.635 25.56 133.827 25.032 133.827 24.432C133.827 23.928 133.647 23.532 133.287 23.244C132.927 22.956 132.507 22.812 132.027 22.812C131.283 22.812 130.587 23.076 129.939 23.604C129.291 24.108 128.703 24.78 128.175 25.62C127.671 26.436 127.215 27.312 126.807 28.248C126.399 29.184 126.051 30.072 125.763 30.912C125.475 31.752 125.235 32.448 125.043 33C124.899 33.432 124.695 33.72 124.431 33.864C124.167 34.032 123.891 34.116 123.603 34.116C123.195 34.116 122.895 33.948 122.703 33.612C122.535 33.276 122.427 32.856 122.379 32.352C122.355 31.824 122.343 31.284 122.343 30.732C122.343 29.484 122.547 28.044 122.955 26.412C123.363 24.78 123.903 23.088 124.575 21.336C125.271 19.56 126.027 17.844 126.843 16.188C127.659 14.532 128.475 13.032 129.291 11.688C130.107 10.344 130.863 9.276 131.559 8.484C132.255 7.692 132.819 7.296 133.251 7.296C133.587 7.296 133.851 7.524 134.043 7.98C134.259 8.436 134.367 8.988 134.367 9.636C134.367 10.452 134.187 11.376 133.827 12.408C133.467 13.416 132.951 14.436 132.279 15.468C131.631 16.5 130.851 17.472 129.939 18.384C129.051 19.296 128.079 20.076 127.023 20.724C126.231 22.668 125.631 24.564 125.223 26.412C124.839 28.236 124.647 29.772 124.647 31.02C125.031 30.06 125.487 29.004 126.015 27.852C126.567 26.7 127.191 25.596 127.887 24.54C128.583 23.484 129.339 22.62 130.155 21.948C130.971 21.276 131.823 20.94 132.711 20.94C133.599 20.94 134.355 21.252 134.979 21.876C135.603 22.5 135.915 23.256 135.915 24.144C135.915 24.912 135.711 25.572 135.303 26.124C134.919 26.652 134.439 27.084 133.863 27.42C133.311 27.732 132.747 27.972 132.171 28.14C131.619 28.284 131.163 28.356 130.803 28.356C130.827 28.548 130.899 28.896 131.019 29.4C131.139 29.904 131.307 30.432 131.523 30.984C131.763 31.536 132.051 32.016 132.387 32.424C132.723 32.808 133.131 33 133.611 33C134.643 33 135.603 32.436 136.491 31.308C137.379 30.156 138.195 28.764 138.939 27.132L139.299 27.492C138.963 28.668 138.447 29.784 137.751 30.84C137.055 31.872 136.275 32.712 135.411 33.36C134.571 34.032 133.731 34.368 132.891 34.368ZM127.635 19.284C128.739 18.396 129.699 17.388 130.515 16.26C131.355 15.132 132.003 14.052 132.459 13.02C132.915 11.964 133.143 11.136 133.143 10.536C133.143 10.32 133.107 10.212 133.035 10.212C132.795 10.212 132.375 10.632 131.775 11.472C131.199 12.312 130.539 13.428 129.795 14.82C129.051 16.188 128.331 17.676 127.635 19.284ZM145.574 36.132C144.278 36.132 143.054 35.892 141.902 35.412C140.75 34.956 139.814 34.248 139.094 33.288C138.398 32.328 138.05 31.128 138.05 29.688C138.05 28.44 138.29 27.468 138.77 26.772C139.274 26.076 139.886 25.584 140.606 25.296C141.326 25.008 142.01 24.864 142.658 24.864C142.01 25.56 141.518 26.328 141.182 27.168C140.846 28.008 140.678 28.848 140.678 29.688C140.678 30.576 140.87 31.404 141.254 32.172C141.662 32.94 142.274 33.552 143.09 34.008C143.906 34.488 144.938 34.728 146.186 34.728C147.266 34.728 148.322 34.524 149.354 34.116C150.386 33.732 151.226 33.156 151.874 32.388C152.546 31.596 152.882 30.624 152.882 29.472C152.882 28.44 152.618 27.552 152.09 26.808C151.562 26.064 150.878 25.404 150.038 24.828C149.222 24.252 148.346 23.7 147.41 23.172C146.474 22.644 145.586 22.092 144.746 21.516C143.93 20.916 143.258 20.232 142.73 19.464C142.202 18.696 141.938 17.772 141.938 16.692C141.938 15.684 142.178 14.628 142.658 13.524C143.138 12.42 143.822 11.376 144.71 10.392C145.622 9.408 146.702 8.616 147.95 8.016C149.222 7.392 150.638 7.08 152.198 7.08C153.614 7.08 154.598 7.428 155.15 8.124C155.702 8.796 155.978 9.648 155.978 10.68C155.978 11.544 155.822 12.48 155.51 13.488C155.222 14.472 154.862 15.42 154.43 16.332C153.998 17.22 153.59 17.976 153.206 18.6C152.774 18.504 152.462 18.324 152.27 18.06C152.102 17.772 152.018 17.436 152.018 17.052C152.018 16.548 152.126 15.972 152.342 15.324C152.558 14.676 152.798 14.004 153.062 13.308C153.35 12.612 153.602 11.94 153.818 11.292C154.034 10.62 154.142 10.02 154.142 9.492C154.142 9.012 153.998 8.64 153.71 8.376C153.422 8.088 152.894 7.944 152.126 7.944C150.998 7.944 149.954 8.208 148.994 8.736C148.034 9.264 147.194 9.948 146.474 10.788C145.754 11.604 145.19 12.468 144.782 13.38C144.398 14.292 144.206 15.12 144.206 15.864C144.206 16.752 144.458 17.52 144.962 18.168C145.49 18.792 146.162 19.368 146.978 19.896C147.794 20.4 148.658 20.916 149.57 21.444C150.506 21.948 151.382 22.512 152.198 23.136C153.014 23.76 153.674 24.504 154.178 25.368C154.706 26.208 154.97 27.24 154.97 28.464C154.97 29.712 154.694 30.816 154.142 31.776C153.59 32.712 152.846 33.504 151.91 34.152C150.998 34.8 149.99 35.292 148.886 35.628C147.782 35.964 146.678 36.132 145.574 36.132ZM159.258 34.368C158.802 34.368 158.442 33.984 158.178 33.216C157.914 32.448 157.782 31.584 157.782 30.624C157.782 29.472 157.974 28.104 158.358 26.52C158.742 24.936 159.246 23.268 159.87 21.516C160.494 19.764 161.19 18.048 161.958 16.368C162.75 14.688 163.554 13.164 164.37 11.796C165.186 10.428 165.954 9.336 166.674 8.52C167.394 7.704 168.018 7.296 168.546 7.296C168.978 7.296 169.278 7.56 169.446 8.088C169.638 8.592 169.734 9.084 169.734 9.564C169.734 10.236 169.578 11.052 169.266 12.012C168.978 12.972 168.57 14.004 168.042 15.108C167.514 16.188 166.902 17.256 166.206 18.312C165.51 19.368 164.754 20.34 163.938 21.228C163.122 22.092 162.294 22.776 161.454 23.28C161.166 23.976 160.914 24.756 160.698 25.62C160.506 26.484 160.362 27.336 160.266 28.176C160.17 28.992 160.122 29.724 160.122 30.372C160.122 30.636 160.122 30.864 160.122 31.056C160.146 31.248 160.17 31.428 160.194 31.596C160.77 29.94 161.418 28.404 162.138 26.988C162.858 25.572 163.662 24.432 164.55 23.568C165.462 22.704 166.446 22.272 167.502 22.272C168.486 22.272 169.182 22.62 169.59 23.316C170.022 23.988 170.238 24.72 170.238 25.512C170.238 26.256 170.106 26.976 169.842 27.672C169.602 28.368 169.35 29.04 169.086 29.688C168.822 30.336 168.69 30.96 168.69 31.56C168.69 32.04 168.786 32.388 168.978 32.604C169.194 32.82 169.458 32.928 169.77 32.928C170.322 32.928 170.934 32.664 171.606 32.136C172.302 31.608 172.986 30.912 173.658 30.048C174.33 29.16 174.906 28.2 175.386 27.168L175.854 27.6C175.35 28.776 174.738 29.844 174.018 30.804C173.298 31.74 172.506 32.484 171.642 33.036C170.778 33.588 169.878 33.864 168.942 33.864C168.126 33.864 167.502 33.648 167.07 33.216C166.662 32.784 166.458 32.244 166.458 31.596C166.458 31.092 166.554 30.528 166.746 29.904C166.938 29.28 167.118 28.644 167.286 27.996C167.478 27.348 167.574 26.736 167.574 26.16C167.574 25.536 167.442 25.092 167.178 24.828C166.914 24.564 166.59 24.432 166.206 24.432C165.606 24.432 165.066 24.672 164.586 25.152C164.106 25.632 163.662 26.256 163.254 27.024C162.87 27.768 162.498 28.56 162.138 29.4C161.802 30.24 161.478 31.044 161.166 31.812C160.854 32.556 160.542 33.168 160.23 33.648C159.918 34.128 159.594 34.368 159.258 34.368ZM161.922 21.876C162.594 21.348 163.242 20.676 163.866 19.86C164.514 19.044 165.114 18.18 165.666 17.268C166.218 16.332 166.71 15.42 167.142 14.532C167.574 13.644 167.91 12.84 168.15 12.12C168.39 11.4 168.51 10.86 168.51 10.5C168.51 10.308 168.462 10.212 168.366 10.212C168.198 10.212 167.85 10.548 167.322 11.22C166.818 11.868 166.23 12.744 165.558 13.848C164.886 14.952 164.226 16.2 163.578 17.592C162.93 18.984 162.378 20.412 161.922 21.876ZM178.576 34.584C177.112 34.584 176.008 34.176 175.264 33.36C174.543 32.568 174.183 31.584 174.183 30.408C174.183 29.328 174.447 28.188 174.976 26.988C175.528 25.788 176.248 24.66 177.136 23.604C178.048 22.548 179.044 21.696 180.124 21.048C181.204 20.376 182.272 20.04 183.328 20.04C183.88 20.04 184.384 20.184 184.84 20.472C185.32 20.76 185.56 21.348 185.56 22.236C185.56 23.148 185.284 24.012 184.732 24.828C184.204 25.62 183.496 26.328 182.608 26.952C181.744 27.576 180.784 28.092 179.728 28.5C178.696 28.884 177.664 29.124 176.632 29.22C176.584 29.46 176.548 29.688 176.524 29.904C176.5 30.12 176.488 30.324 176.488 30.516C176.488 31.26 176.68 31.956 177.063 32.604C177.472 33.228 178.228 33.54 179.332 33.54C180.364 33.54 181.384 33.252 182.392 32.676C183.4 32.076 184.336 31.296 185.2 30.336C186.064 29.376 186.796 28.32 187.396 27.168L187.828 27.492C187.18 28.932 186.352 30.18 185.344 31.236C184.36 32.292 183.28 33.108 182.104 33.684C180.952 34.284 179.776 34.584 178.576 34.584ZM176.812 28.536C177.46 28.32 178.192 28.008 179.008 27.6C179.824 27.168 180.604 26.664 181.348 26.088C182.116 25.512 182.74 24.876 183.22 24.18C183.724 23.484 183.976 22.752 183.976 21.984C183.976 21.72 183.928 21.516 183.832 21.372C183.736 21.228 183.532 21.156 183.22 21.156C182.644 21.156 182.032 21.384 181.384 21.84C180.736 22.272 180.112 22.848 179.512 23.568C178.912 24.288 178.372 25.08 177.892 25.944C177.412 26.808 177.052 27.672 176.812 28.536ZM189.664 34.08C188.632 34.08 187.888 33.72 187.432 33C187 32.304 186.784 31.428 186.784 30.372C186.784 29.22 187 27.852 187.432 26.268C187.864 24.684 188.428 23.016 189.124 21.264C189.844 19.512 190.624 17.808 191.464 16.152C192.304 14.472 193.144 12.948 193.984 11.58C194.824 10.212 195.592 9.12 196.288 8.304C197.008 7.488 197.572 7.08 197.98 7.08C198.244 7.08 198.46 7.236 198.628 7.548C198.796 7.836 198.928 8.196 199.024 8.628C199.12 9.036 199.168 9.408 199.168 9.744C199.168 10.392 199 11.244 198.664 12.3C198.352 13.332 197.896 14.496 197.296 15.792C196.72 17.064 196.024 18.36 195.208 19.68C194.416 20.976 193.54 22.224 192.58 23.424C191.644 24.624 190.648 25.656 189.592 26.52C189.448 27.168 189.328 27.804 189.232 28.428C189.16 29.028 189.124 29.604 189.124 30.156C189.124 32.004 189.652 32.928 190.708 32.928C191.356 32.928 191.992 32.64 192.616 32.064C193.264 31.488 193.864 30.768 194.416 29.904C194.992 29.016 195.484 28.104 195.892 27.168L196.432 27.456C195.472 29.496 194.428 31.116 193.3 32.316C192.172 33.492 190.96 34.08 189.664 34.08ZM189.916 25.296C190.756 24.456 191.572 23.496 192.364 22.416C193.156 21.312 193.888 20.172 194.56 18.996C195.256 17.82 195.868 16.68 196.396 15.576C196.924 14.472 197.332 13.488 197.62 12.624C197.908 11.736 198.052 11.052 198.052 10.572C198.052 10.332 198.016 10.176 197.944 10.104C197.896 10.032 197.848 9.996 197.8 9.996C197.608 9.996 197.272 10.308 196.792 10.932C196.336 11.532 195.796 12.348 195.172 13.38C194.548 14.412 193.912 15.588 193.264 16.908C192.616 18.228 191.992 19.608 191.392 21.048C190.816 22.488 190.324 23.904 189.916 25.296ZM198.244 34.656C196.108 34.656 195.04 33.468 195.04 31.092C195.04 30.036 195.232 28.74 195.616 27.204C196.024 25.644 196.528 24.048 197.128 22.416C196.888 22.368 196.66 22.332 196.444 22.308C196.228 22.26 196.024 22.2 195.832 22.128V21.48C196.024 21.504 196.252 21.528 196.516 21.552C196.78 21.576 197.08 21.6 197.416 21.624C197.92 20.328 198.46 19.08 199.036 17.88C199.612 16.656 200.176 15.576 200.728 14.64C201.304 13.68 201.844 12.924 202.348 12.372C202.876 11.796 203.32 11.508 203.68 11.508C203.872 11.508 204.04 11.58 204.184 11.724C204.352 11.844 204.436 12.036 204.436 12.3C204.436 12.708 204.184 13.38 203.68 14.316C203.176 15.228 202.552 16.32 201.808 17.592C201.064 18.864 200.344 20.244 199.648 21.732H200.98C201.772 21.732 202.6 21.72 203.464 21.696C204.352 21.672 205.24 21.612 206.128 21.516V22.164C203.512 22.452 201.4 22.596 199.792 22.596H199.252C198.7 23.868 198.232 25.176 197.848 26.52C197.464 27.864 197.272 29.172 197.272 30.444C197.272 31.476 197.428 32.22 197.74 32.676C198.052 33.108 198.568 33.324 199.288 33.324C200.536 33.324 201.76 32.772 202.96 31.668C204.16 30.564 205.216 29.064 206.128 27.168L206.596 27.528C206.02 28.872 205.288 30.084 204.4 31.164C203.536 32.244 202.576 33.096 201.52 33.72C200.464 34.344 199.372 34.656 198.244 34.656ZM209.337 34.584C207.873 34.584 206.769 34.176 206.025 33.36C205.305 32.568 204.945 31.584 204.945 30.408C204.945 29.328 205.209 28.188 205.737 26.988C206.289 25.788 207.009 24.66 207.897 23.604C208.809 22.548 209.805 21.696 210.885 21.048C211.965 20.376 213.033 20.04 214.089 20.04C214.641 20.04 215.145 20.184 215.601 20.472C216.081 20.76 216.321 21.348 216.321 22.236C216.321 23.148 216.045 24.012 215.493 24.828C214.965 25.62 214.257 26.328 213.369 26.952C212.505 27.576 211.545 28.092 210.489 28.5C209.457 28.884 208.425 29.124 207.393 29.22C207.345 29.46 207.309 29.688 207.285 29.904C207.261 30.12 207.249 30.324 207.249 30.516C207.249 31.26 207.441 31.956 207.825 32.604C208.233 33.228 208.989 33.54 210.093 33.54C211.125 33.54 212.145 33.252 213.153 32.676C214.161 32.076 215.097 31.296 215.961 30.336C216.825 29.376 217.557 28.32 218.157 27.168L218.589 27.492C217.941 28.932 217.113 30.18 216.105 31.236C215.121 32.292 214.041 33.108 212.865 33.684C211.713 34.284 210.537 34.584 209.337 34.584ZM207.573 28.536C208.221 28.32 208.953 28.008 209.769 27.6C210.585 27.168 211.365 26.664 212.109 26.088C212.877 25.512 213.501 24.876 213.981 24.18C214.485 23.484 214.737 22.752 214.737 21.984C214.737 21.72 214.689 21.516 214.593 21.372C214.497 21.228 214.293 21.156 213.981 21.156C213.405 21.156 212.793 21.384 212.145 21.84C211.497 22.272 210.873 22.848 210.273 23.568C209.673 24.288 209.133 25.08 208.653 25.944C208.173 26.808 207.813 27.672 207.573 28.536ZM223.666 33.936C222.85 33.936 222.202 33.72 221.722 33.288C221.266 32.856 221.038 32.292 221.038 31.596C221.038 30.876 221.206 30.12 221.542 29.328C221.878 28.536 222.202 27.756 222.514 26.988C222.85 26.196 223.018 25.488 223.018 24.864C223.018 24.096 222.79 23.532 222.334 23.172C221.902 22.788 221.458 22.44 221.002 22.128C220.45 23.544 219.874 24.888 219.274 26.16C218.674 27.432 218.182 28.392 217.798 29.04L217.474 28.428C217.81 27.804 218.242 26.892 218.77 25.692C219.322 24.492 219.862 23.124 220.39 21.588C220.15 21.348 220.03 21.06 220.03 20.724C220.03 20.004 220.234 19.416 220.642 18.96C221.05 18.504 221.35 18.276 221.542 18.276C221.806 18.276 221.95 18.396 221.974 18.636C222.022 18.852 222.046 19.02 222.046 19.14C222.046 19.26 221.974 19.5 221.83 19.86C221.71 20.196 221.65 20.4 221.65 20.472C221.65 20.808 221.83 21.12 222.189 21.408C222.574 21.672 223.006 21.984 223.486 22.344C223.966 22.68 224.386 23.1 224.746 23.604C225.13 24.084 225.322 24.708 225.322 25.476C225.322 26.196 225.166 26.928 224.854 27.672C224.566 28.416 224.266 29.124 223.954 29.796C223.666 30.468 223.522 31.056 223.522 31.56C223.522 31.992 223.63 32.28 223.846 32.424C224.062 32.568 224.314 32.64 224.602 32.64C225.178 32.64 225.766 32.46 226.366 32.1C226.99 31.74 227.59 31.284 228.166 30.732C228.742 30.18 229.258 29.604 229.714 29.004C230.17 28.38 230.506 27.804 230.722 27.276L231.19 27.636C230.734 28.644 230.11 29.64 229.318 30.624C228.526 31.584 227.638 32.376 226.654 33C225.694 33.624 224.698 33.936 223.666 33.936Z" fill="black"/>
</g>
<defs>
<filter id="filter0_d_606_379" x="0" y="0" width="235.19" height="52" filterUnits="userSpaceOnUse" color-interpolation-filters="sRGB">
<feFlood flood-opacity="0" result="BackgroundImageFix"/>
<feColorMatrix in="SourceAlpha" type="matrix" values="0 0 0 0 0 0 0 0 0 0 0 0 0 0 0 0 0 0 127 0" result="hardAlpha"/>
<feOffset dy="4"/>
<feGaussianBlur stdDeviation="2"/>
<feComposite in2="hardAlpha" operator="out"/>
<feColorMatrix type="matrix" values="0 0 0 0 0 0 0 0 0 0 0 0 0 0 0 0 0 0 0.25 0"/>
<feBlend mode="normal" in2="BackgroundImageFix" result="effect1_dropShadow_606_379"/>
<feBlend mode="normal" in="SourceGraphic" in2="effect1_dropShadow_606_379" result="shape"/>
</filter>
</defs>
</svg>
